<mxfile host="app.diagrams.net" modified="2023-12-10T11:54:45.015Z" agent="Mozilla/5.0 (Windows NT 10.0; Win64; x64) AppleWebKit/537.36 (KHTML, like Gecko) Chrome/120.0.0.0 Safari/537.36" etag="HKLu6lQsAKXMR_6ZvjyH" version="22.1.7" type="device">
  <diagram id="R2lEEEUBdFMjLlhIrx00" name="Page-1">
    <mxGraphModel dx="1811" dy="1761" grid="1" gridSize="10" guides="1" tooltips="1" connect="1" arrows="1" fold="1" page="1" pageScale="1" pageWidth="850" pageHeight="1100" background="none" math="0" shadow="0" extFonts="Permanent Marker^https://fonts.googleapis.com/css?family=Permanent+Marker">
      <root>
        <mxCell id="0" />
        <mxCell id="1" parent="0" />
        <mxCell id="-mjbvQVLUY0v4dPmMEXj-12" style="rounded=0;orthogonalLoop=1;jettySize=auto;html=1;exitX=0.5;exitY=1;exitDx=0;exitDy=0;entryX=0.5;entryY=0;entryDx=0;entryDy=0;labelBackgroundColor=none;strokeColor=#36393d;fontColor=default;fillColor=#eeeeee;" parent="1" source="-mjbvQVLUY0v4dPmMEXj-1" target="-mjbvQVLUY0v4dPmMEXj-11" edge="1">
          <mxGeometry relative="1" as="geometry" />
        </mxCell>
        <mxCell id="-mjbvQVLUY0v4dPmMEXj-1" value="DAY" style="whiteSpace=wrap;html=1;align=center;labelBackgroundColor=none;fillColor=#eeeeee;strokeColor=#36393d;" parent="1" vertex="1">
          <mxGeometry x="-330" y="240" width="100" height="40" as="geometry" />
        </mxCell>
        <mxCell id="-mjbvQVLUY0v4dPmMEXj-15" style="rounded=0;orthogonalLoop=1;jettySize=auto;html=1;exitX=0;exitY=1;exitDx=0;exitDy=0;entryX=0.5;entryY=0;entryDx=0;entryDy=0;labelBackgroundColor=none;strokeColor=#36393d;fontColor=default;fillColor=#eeeeee;" parent="1" source="-mjbvQVLUY0v4dPmMEXj-58" target="-mjbvQVLUY0v4dPmMEXj-13" edge="1">
          <mxGeometry relative="1" as="geometry" />
        </mxCell>
        <mxCell id="-mjbvQVLUY0v4dPmMEXj-16" style="rounded=0;orthogonalLoop=1;jettySize=auto;html=1;exitX=1;exitY=1;exitDx=0;exitDy=0;labelBackgroundColor=none;strokeColor=#36393d;fontColor=default;entryX=0.5;entryY=0;entryDx=0;entryDy=0;fillColor=#eeeeee;" parent="1" source="-mjbvQVLUY0v4dPmMEXj-58" target="-mjbvQVLUY0v4dPmMEXj-14" edge="1">
          <mxGeometry relative="1" as="geometry">
            <mxPoint x="-60" y="200" as="targetPoint" />
          </mxGeometry>
        </mxCell>
        <mxCell id="-mjbvQVLUY0v4dPmMEXj-18" value="" style="rounded=0;orthogonalLoop=1;jettySize=auto;html=1;entryX=0.5;entryY=0;entryDx=0;entryDy=0;labelBackgroundColor=none;strokeColor=#36393d;fontColor=default;fillColor=#eeeeee;" parent="1" source="-mjbvQVLUY0v4dPmMEXj-3" target="-mjbvQVLUY0v4dPmMEXj-17" edge="1">
          <mxGeometry relative="1" as="geometry" />
        </mxCell>
        <mxCell id="-mjbvQVLUY0v4dPmMEXj-3" value="ATTRACTION TYPE" style="whiteSpace=wrap;html=1;align=center;labelBackgroundColor=none;fillColor=#eeeeee;strokeColor=#36393d;" parent="1" vertex="1">
          <mxGeometry x="180" y="190" width="100" height="40" as="geometry" />
        </mxCell>
        <mxCell id="-mjbvQVLUY0v4dPmMEXj-23" style="rounded=0;orthogonalLoop=1;jettySize=auto;html=1;exitX=0.5;exitY=1;exitDx=0;exitDy=0;entryX=0.5;entryY=0;entryDx=0;entryDy=0;labelBackgroundColor=none;strokeColor=#36393d;fontColor=default;fillColor=#eeeeee;" parent="1" source="-mjbvQVLUY0v4dPmMEXj-4" target="-mjbvQVLUY0v4dPmMEXj-22" edge="1">
          <mxGeometry relative="1" as="geometry" />
        </mxCell>
        <mxCell id="-mjbvQVLUY0v4dPmMEXj-4" value="COUNTY" style="whiteSpace=wrap;html=1;align=center;labelBackgroundColor=none;fillColor=#eeeeee;strokeColor=#36393d;" parent="1" vertex="1">
          <mxGeometry x="-330" y="380" width="100" height="40" as="geometry" />
        </mxCell>
        <mxCell id="-mjbvQVLUY0v4dPmMEXj-24" style="rounded=0;orthogonalLoop=1;jettySize=auto;html=1;exitX=0.5;exitY=1;exitDx=0;exitDy=0;labelBackgroundColor=none;strokeColor=#36393d;fontColor=default;fillColor=#eeeeee;" parent="1" source="-mjbvQVLUY0v4dPmMEXj-5" target="-mjbvQVLUY0v4dPmMEXj-21" edge="1">
          <mxGeometry relative="1" as="geometry" />
        </mxCell>
        <mxCell id="-mjbvQVLUY0v4dPmMEXj-5" value="COUNTRY" style="whiteSpace=wrap;html=1;align=center;labelBackgroundColor=none;fillColor=#eeeeee;strokeColor=#36393d;" parent="1" vertex="1">
          <mxGeometry x="-10" y="341.5" width="100" height="40" as="geometry" />
        </mxCell>
        <mxCell id="-mjbvQVLUY0v4dPmMEXj-25" style="rounded=0;orthogonalLoop=1;jettySize=auto;html=1;exitX=0.5;exitY=1;exitDx=0;exitDy=0;entryX=0.5;entryY=0;entryDx=0;entryDy=0;labelBackgroundColor=none;strokeColor=#36393d;fontColor=default;fillColor=#eeeeee;" parent="1" source="-mjbvQVLUY0v4dPmMEXj-6" target="-mjbvQVLUY0v4dPmMEXj-20" edge="1">
          <mxGeometry relative="1" as="geometry" />
        </mxCell>
        <mxCell id="-mjbvQVLUY0v4dPmMEXj-6" value="CITY" style="whiteSpace=wrap;html=1;align=center;labelBackgroundColor=none;fillColor=#eeeeee;strokeColor=#36393d;" parent="1" vertex="1">
          <mxGeometry x="220" y="380" width="100" height="40" as="geometry" />
        </mxCell>
        <mxCell id="-mjbvQVLUY0v4dPmMEXj-28" style="rounded=0;orthogonalLoop=1;jettySize=auto;html=1;exitX=0.5;exitY=1;exitDx=0;exitDy=0;entryX=0.5;entryY=0;entryDx=0;entryDy=0;labelBackgroundColor=none;strokeColor=#36393d;fontColor=default;fillColor=#eeeeee;" parent="1" source="-mjbvQVLUY0v4dPmMEXj-7" target="-mjbvQVLUY0v4dPmMEXj-29" edge="1">
          <mxGeometry relative="1" as="geometry">
            <mxPoint x="535" y="330" as="targetPoint" />
          </mxGeometry>
        </mxCell>
        <mxCell id="-mjbvQVLUY0v4dPmMEXj-32" style="rounded=0;orthogonalLoop=1;jettySize=auto;html=1;exitX=0.5;exitY=1;exitDx=0;exitDy=0;entryX=0.5;entryY=0;entryDx=0;entryDy=0;labelBackgroundColor=none;strokeColor=#36393d;fontColor=default;fillColor=#eeeeee;" parent="1" source="-mjbvQVLUY0v4dPmMEXj-7" target="-mjbvQVLUY0v4dPmMEXj-30" edge="1">
          <mxGeometry relative="1" as="geometry" />
        </mxCell>
        <mxCell id="-mjbvQVLUY0v4dPmMEXj-33" style="rounded=0;orthogonalLoop=1;jettySize=auto;html=1;exitX=0.5;exitY=1;exitDx=0;exitDy=0;entryX=0.5;entryY=0;entryDx=0;entryDy=0;labelBackgroundColor=none;strokeColor=#36393d;fontColor=default;fillColor=#eeeeee;" parent="1" source="-mjbvQVLUY0v4dPmMEXj-7" target="-mjbvQVLUY0v4dPmMEXj-31" edge="1">
          <mxGeometry relative="1" as="geometry" />
        </mxCell>
        <mxCell id="-mjbvQVLUY0v4dPmMEXj-7" value="REVIEW" style="whiteSpace=wrap;html=1;align=center;labelBackgroundColor=none;fillColor=#eeeeee;strokeColor=#36393d;" parent="1" vertex="1">
          <mxGeometry x="540" y="240" width="100" height="40" as="geometry" />
        </mxCell>
        <mxCell id="-mjbvQVLUY0v4dPmMEXj-38" style="rounded=0;orthogonalLoop=1;jettySize=auto;html=1;exitX=0.5;exitY=0;exitDx=0;exitDy=0;entryX=1;entryY=0.5;entryDx=0;entryDy=0;labelBackgroundColor=none;strokeColor=#36393d;fontColor=default;fillColor=#eeeeee;" parent="1" source="-mjbvQVLUY0v4dPmMEXj-8" target="-mjbvQVLUY0v4dPmMEXj-34" edge="1">
          <mxGeometry relative="1" as="geometry" />
        </mxCell>
        <mxCell id="-mjbvQVLUY0v4dPmMEXj-39" style="rounded=0;orthogonalLoop=1;jettySize=auto;html=1;exitX=0.5;exitY=0;exitDx=0;exitDy=0;entryX=0.5;entryY=1;entryDx=0;entryDy=0;labelBackgroundColor=none;strokeColor=#36393d;fontColor=default;fillColor=#eeeeee;" parent="1" source="-mjbvQVLUY0v4dPmMEXj-8" target="-mjbvQVLUY0v4dPmMEXj-36" edge="1">
          <mxGeometry relative="1" as="geometry" />
        </mxCell>
        <mxCell id="-mjbvQVLUY0v4dPmMEXj-40" style="rounded=0;orthogonalLoop=1;jettySize=auto;html=1;exitX=0.5;exitY=0;exitDx=0;exitDy=0;entryX=0.5;entryY=1;entryDx=0;entryDy=0;labelBackgroundColor=none;strokeColor=#36393d;fontColor=default;fillColor=#eeeeee;" parent="1" source="-mjbvQVLUY0v4dPmMEXj-8" target="-mjbvQVLUY0v4dPmMEXj-35" edge="1">
          <mxGeometry relative="1" as="geometry" />
        </mxCell>
        <mxCell id="-mjbvQVLUY0v4dPmMEXj-41" style="rounded=0;orthogonalLoop=1;jettySize=auto;html=1;exitX=0.5;exitY=0;exitDx=0;exitDy=0;entryX=0;entryY=0.5;entryDx=0;entryDy=0;labelBackgroundColor=none;strokeColor=#36393d;fontColor=default;fillColor=#eeeeee;" parent="1" source="-mjbvQVLUY0v4dPmMEXj-8" target="-mjbvQVLUY0v4dPmMEXj-37" edge="1">
          <mxGeometry relative="1" as="geometry" />
        </mxCell>
        <mxCell id="-mjbvQVLUY0v4dPmMEXj-8" value="USER" style="whiteSpace=wrap;html=1;align=center;labelBackgroundColor=none;fillColor=#eeeeee;strokeColor=#36393d;" parent="1" vertex="1">
          <mxGeometry x="430" y="-40" width="100" height="40" as="geometry" />
        </mxCell>
        <mxCell id="-mjbvQVLUY0v4dPmMEXj-43" style="rounded=0;orthogonalLoop=1;jettySize=auto;html=1;exitX=0.5;exitY=1;exitDx=0;exitDy=0;entryX=0.5;entryY=0;entryDx=0;entryDy=0;labelBackgroundColor=none;strokeColor=#36393d;fontColor=default;fillColor=#eeeeee;" parent="1" source="-mjbvQVLUY0v4dPmMEXj-9" target="-mjbvQVLUY0v4dPmMEXj-42" edge="1">
          <mxGeometry relative="1" as="geometry" />
        </mxCell>
        <mxCell id="aujs98mdGq3QcJZJDIXH-20" style="rounded=0;orthogonalLoop=1;jettySize=auto;html=1;exitX=0.5;exitY=1;exitDx=0;exitDy=0;entryX=0.5;entryY=0;entryDx=0;entryDy=0;" edge="1" parent="1" source="-mjbvQVLUY0v4dPmMEXj-9" target="aujs98mdGq3QcJZJDIXH-19">
          <mxGeometry relative="1" as="geometry" />
        </mxCell>
        <mxCell id="-mjbvQVLUY0v4dPmMEXj-9" value="PICTURE" style="whiteSpace=wrap;html=1;align=center;labelBackgroundColor=none;fillColor=#eeeeee;strokeColor=#36393d;" parent="1" vertex="1">
          <mxGeometry x="824.5" y="110" width="100" height="40" as="geometry" />
        </mxCell>
        <mxCell id="-mjbvQVLUY0v4dPmMEXj-46" style="rounded=0;orthogonalLoop=1;jettySize=auto;html=1;exitX=0.5;exitY=0;exitDx=0;exitDy=0;entryX=1;entryY=0.5;entryDx=0;entryDy=0;labelBackgroundColor=none;strokeColor=#36393d;fontColor=default;fillColor=#eeeeee;" parent="1" source="-mjbvQVLUY0v4dPmMEXj-10" target="-mjbvQVLUY0v4dPmMEXj-45" edge="1">
          <mxGeometry relative="1" as="geometry" />
        </mxCell>
        <mxCell id="-mjbvQVLUY0v4dPmMEXj-48" style="rounded=0;orthogonalLoop=1;jettySize=auto;html=1;exitX=0.5;exitY=0;exitDx=0;exitDy=0;entryX=1;entryY=1;entryDx=0;entryDy=0;labelBackgroundColor=none;strokeColor=#36393d;fontColor=default;fillColor=#eeeeee;" parent="1" source="-mjbvQVLUY0v4dPmMEXj-10" target="-mjbvQVLUY0v4dPmMEXj-47" edge="1">
          <mxGeometry relative="1" as="geometry" />
        </mxCell>
        <mxCell id="-mjbvQVLUY0v4dPmMEXj-52" style="rounded=0;orthogonalLoop=1;jettySize=auto;html=1;exitX=0.5;exitY=0;exitDx=0;exitDy=0;entryX=0.5;entryY=1;entryDx=0;entryDy=0;labelBackgroundColor=none;strokeColor=#36393d;fontColor=default;fillColor=#eeeeee;" parent="1" source="-mjbvQVLUY0v4dPmMEXj-10" target="-mjbvQVLUY0v4dPmMEXj-50" edge="1">
          <mxGeometry relative="1" as="geometry" />
        </mxCell>
        <mxCell id="-mjbvQVLUY0v4dPmMEXj-54" style="rounded=0;orthogonalLoop=1;jettySize=auto;html=1;exitX=0.5;exitY=0;exitDx=0;exitDy=0;entryX=0.5;entryY=1;entryDx=0;entryDy=0;labelBackgroundColor=none;strokeColor=#36393d;fontColor=default;fillColor=#eeeeee;" parent="1" source="-mjbvQVLUY0v4dPmMEXj-10" target="-mjbvQVLUY0v4dPmMEXj-53" edge="1">
          <mxGeometry relative="1" as="geometry" />
        </mxCell>
        <mxCell id="-mjbvQVLUY0v4dPmMEXj-57" style="rounded=0;orthogonalLoop=1;jettySize=auto;html=1;exitX=0.5;exitY=0;exitDx=0;exitDy=0;entryX=0;entryY=1;entryDx=0;entryDy=0;labelBackgroundColor=none;strokeColor=#36393d;fontColor=default;fillColor=#eeeeee;" parent="1" source="-mjbvQVLUY0v4dPmMEXj-10" target="-mjbvQVLUY0v4dPmMEXj-55" edge="1">
          <mxGeometry relative="1" as="geometry" />
        </mxCell>
        <mxCell id="-mjbvQVLUY0v4dPmMEXj-10" value="ATTRACTION" style="whiteSpace=wrap;html=1;align=center;labelBackgroundColor=none;fillColor=#eeeeee;strokeColor=#36393d;" parent="1" vertex="1">
          <mxGeometry x="-60" width="100" height="40" as="geometry" />
        </mxCell>
        <mxCell id="-mjbvQVLUY0v4dPmMEXj-11" value="dayName" style="ellipse;whiteSpace=wrap;html=1;align=center;fontStyle=4;labelBackgroundColor=none;fillColor=#eeeeee;strokeColor=#36393d;" parent="1" vertex="1">
          <mxGeometry x="-400" y="300" width="100" height="40" as="geometry" />
        </mxCell>
        <mxCell id="-mjbvQVLUY0v4dPmMEXj-13" value="open" style="ellipse;whiteSpace=wrap;html=1;align=center;labelBackgroundColor=none;fillColor=#eeeeee;strokeColor=#36393d;" parent="1" vertex="1">
          <mxGeometry x="-260" y="180" width="100" height="40" as="geometry" />
        </mxCell>
        <mxCell id="-mjbvQVLUY0v4dPmMEXj-14" value="close" style="ellipse;whiteSpace=wrap;html=1;align=center;labelBackgroundColor=none;fillColor=#eeeeee;strokeColor=#36393d;" parent="1" vertex="1">
          <mxGeometry x="-90" y="180" width="100" height="40" as="geometry" />
        </mxCell>
        <mxCell id="-mjbvQVLUY0v4dPmMEXj-17" value="typeName" style="ellipse;whiteSpace=wrap;html=1;align=center;fontStyle=4;labelBackgroundColor=none;fillColor=#eeeeee;strokeColor=#36393d;" parent="1" vertex="1">
          <mxGeometry x="180" y="260" width="100" height="40" as="geometry" />
        </mxCell>
        <mxCell id="-mjbvQVLUY0v4dPmMEXj-20" value="cityName" style="ellipse;whiteSpace=wrap;html=1;align=center;fontStyle=4;labelBackgroundColor=none;fillColor=#eeeeee;strokeColor=#36393d;" parent="1" vertex="1">
          <mxGeometry x="200" y="440" width="100" height="40" as="geometry" />
        </mxCell>
        <mxCell id="-mjbvQVLUY0v4dPmMEXj-21" value="countryName" style="ellipse;whiteSpace=wrap;html=1;align=center;fontStyle=4;labelBackgroundColor=none;fillColor=#eeeeee;strokeColor=#36393d;" parent="1" vertex="1">
          <mxGeometry x="-40" y="400" width="100" height="40" as="geometry" />
        </mxCell>
        <mxCell id="-mjbvQVLUY0v4dPmMEXj-22" value="countyName" style="ellipse;whiteSpace=wrap;html=1;align=center;fontStyle=4;labelBackgroundColor=none;fillColor=#eeeeee;strokeColor=#36393d;" parent="1" vertex="1">
          <mxGeometry x="-370" y="430" width="100" height="40" as="geometry" />
        </mxCell>
        <mxCell id="-mjbvQVLUY0v4dPmMEXj-29" value="timestamp" style="ellipse;whiteSpace=wrap;html=1;align=center;labelBackgroundColor=none;fillColor=#eeeeee;strokeColor=#36393d;" parent="1" vertex="1">
          <mxGeometry x="425" y="320" width="100" height="40" as="geometry" />
        </mxCell>
        <mxCell id="-mjbvQVLUY0v4dPmMEXj-30" value="comments" style="ellipse;whiteSpace=wrap;html=1;align=center;labelBackgroundColor=none;fillColor=#eeeeee;strokeColor=#36393d;" parent="1" vertex="1">
          <mxGeometry x="540" y="320" width="100" height="40" as="geometry" />
        </mxCell>
        <mxCell id="-mjbvQVLUY0v4dPmMEXj-31" value="rating" style="ellipse;whiteSpace=wrap;html=1;align=center;labelBackgroundColor=none;fillColor=#eeeeee;strokeColor=#36393d;" parent="1" vertex="1">
          <mxGeometry x="660" y="320" width="100" height="40" as="geometry" />
        </mxCell>
        <mxCell id="-mjbvQVLUY0v4dPmMEXj-34" value="username" style="ellipse;whiteSpace=wrap;html=1;align=center;fontStyle=4;labelBackgroundColor=none;fillColor=#eeeeee;strokeColor=#36393d;" parent="1" vertex="1">
          <mxGeometry x="290" y="-80" width="100" height="40" as="geometry" />
        </mxCell>
        <mxCell id="-mjbvQVLUY0v4dPmMEXj-35" value="lastname" style="ellipse;whiteSpace=wrap;html=1;align=center;labelBackgroundColor=none;fillColor=#eeeeee;strokeColor=#36393d;" parent="1" vertex="1">
          <mxGeometry x="480" y="-120" width="100" height="40" as="geometry" />
        </mxCell>
        <mxCell id="-mjbvQVLUY0v4dPmMEXj-36" value="surname" style="ellipse;whiteSpace=wrap;html=1;align=center;labelBackgroundColor=none;fillColor=#eeeeee;strokeColor=#36393d;" parent="1" vertex="1">
          <mxGeometry x="375" y="-120" width="100" height="40" as="geometry" />
        </mxCell>
        <mxCell id="-mjbvQVLUY0v4dPmMEXj-37" value="email" style="ellipse;whiteSpace=wrap;html=1;align=center;labelBackgroundColor=none;fillColor=#eeeeee;strokeColor=#36393d;" parent="1" vertex="1">
          <mxGeometry x="570" y="-80" width="100" height="40" as="geometry" />
        </mxCell>
        <mxCell id="-mjbvQVLUY0v4dPmMEXj-42" value="pictureID" style="ellipse;whiteSpace=wrap;html=1;align=center;fontStyle=4;labelBackgroundColor=none;fillColor=#eeeeee;strokeColor=#36393d;" parent="1" vertex="1">
          <mxGeometry x="790" y="170" width="100" height="40" as="geometry" />
        </mxCell>
        <mxCell id="-mjbvQVLUY0v4dPmMEXj-44" value="Has Profile Pic" style="shape=rhombus;perimeter=rhombusPerimeter;whiteSpace=wrap;html=1;align=center;labelBackgroundColor=none;fillColor=#eeeeee;strokeColor=#36393d;" parent="1" vertex="1">
          <mxGeometry x="800" y="-10" width="149" height="83" as="geometry" />
        </mxCell>
        <mxCell id="-mjbvQVLUY0v4dPmMEXj-45" value="attractionName" style="ellipse;whiteSpace=wrap;html=1;align=center;fontStyle=4;labelBackgroundColor=none;fillColor=#eeeeee;strokeColor=#36393d;" parent="1" vertex="1">
          <mxGeometry x="-220" y="-40" width="110" height="40" as="geometry" />
        </mxCell>
        <mxCell id="-mjbvQVLUY0v4dPmMEXj-47" value="entranceFee" style="ellipse;whiteSpace=wrap;html=1;align=center;labelBackgroundColor=none;fillColor=#eeeeee;strokeColor=#36393d;" parent="1" vertex="1">
          <mxGeometry x="-170" y="-80" width="100" height="40" as="geometry" />
        </mxCell>
        <mxCell id="-mjbvQVLUY0v4dPmMEXj-50" value="telephone" style="ellipse;shape=doubleEllipse;margin=3;whiteSpace=wrap;html=1;align=center;labelBackgroundColor=none;fillColor=#eeeeee;strokeColor=#36393d;" parent="1" vertex="1">
          <mxGeometry x="-90" y="-110" width="100" height="40" as="geometry" />
        </mxCell>
        <mxCell id="-mjbvQVLUY0v4dPmMEXj-53" value="email" style="ellipse;shape=doubleEllipse;margin=3;whiteSpace=wrap;html=1;align=center;labelBackgroundColor=none;fillColor=#eeeeee;strokeColor=#36393d;" parent="1" vertex="1">
          <mxGeometry x="20" y="-110" width="100" height="40" as="geometry" />
        </mxCell>
        <mxCell id="-mjbvQVLUY0v4dPmMEXj-55" value="website" style="ellipse;whiteSpace=wrap;html=1;align=center;labelBackgroundColor=none;fillColor=#eeeeee;strokeColor=#36393d;" parent="1" vertex="1">
          <mxGeometry x="90" y="-70" width="100" height="40" as="geometry" />
        </mxCell>
        <mxCell id="-mjbvQVLUY0v4dPmMEXj-58" value="Operates" style="shape=rhombus;perimeter=rhombusPerimeter;whiteSpace=wrap;html=1;align=center;labelBackgroundColor=none;fillColor=#eeeeee;strokeColor=#36393d;" parent="1" vertex="1">
          <mxGeometry x="-204.5" y="110" width="149" height="83" as="geometry" />
        </mxCell>
        <mxCell id="-mjbvQVLUY0v4dPmMEXj-62" value="Is Type Of" style="shape=rhombus;perimeter=rhombusPerimeter;whiteSpace=wrap;html=1;align=center;labelBackgroundColor=none;fillColor=#eeeeee;strokeColor=#36393d;" parent="1" vertex="1">
          <mxGeometry x="80" y="80" width="149" height="83" as="geometry" />
        </mxCell>
        <mxCell id="-mjbvQVLUY0v4dPmMEXj-63" value="Has" style="shape=rhombus;perimeter=rhombusPerimeter;whiteSpace=wrap;html=1;align=center;labelBackgroundColor=none;fillColor=#eeeeee;strokeColor=#36393d;" parent="1" vertex="1">
          <mxGeometry x="440" y="78.5" width="149" height="83" as="geometry" />
        </mxCell>
        <mxCell id="-mjbvQVLUY0v4dPmMEXj-64" value="Has Profile Pic" style="shape=rhombus;perimeter=rhombusPerimeter;whiteSpace=wrap;html=1;align=center;aspect=fixed;labelBackgroundColor=none;fillColor=#eeeeee;strokeColor=#36393d;" parent="1" vertex="1">
          <mxGeometry x="175.5" y="-21.5" width="149" height="83" as="geometry" />
        </mxCell>
        <mxCell id="-mjbvQVLUY0v4dPmMEXj-65" value="Located In" style="shape=rhombus;perimeter=rhombusPerimeter;whiteSpace=wrap;html=1;align=center;labelBackgroundColor=none;fillColor=#eeeeee;strokeColor=#36393d;" parent="1" vertex="1">
          <mxGeometry x="-10" y="210" width="149" height="83" as="geometry" />
        </mxCell>
        <mxCell id="-mjbvQVLUY0v4dPmMEXj-66" value="" style="fontSize=12;html=1;endArrow=ERzeroToMany;endFill=1;rounded=0;entryX=0;entryY=0.5;entryDx=0;entryDy=0;exitX=0.5;exitY=0;exitDx=0;exitDy=0;labelBackgroundColor=none;strokeColor=#36393d;fontColor=default;fillColor=#eeeeee;" parent="1" source="-mjbvQVLUY0v4dPmMEXj-58" target="-mjbvQVLUY0v4dPmMEXj-10" edge="1">
          <mxGeometry width="100" height="100" relative="1" as="geometry">
            <mxPoint x="-70" y="200" as="sourcePoint" />
            <mxPoint x="30" y="100" as="targetPoint" />
            <Array as="points">
              <mxPoint x="-130" y="20" />
            </Array>
          </mxGeometry>
        </mxCell>
        <mxCell id="-mjbvQVLUY0v4dPmMEXj-72" value="" style="edgeStyle=orthogonalEdgeStyle;fontSize=12;html=1;endArrow=ERzeroToMany;endFill=1;rounded=0;entryX=0;entryY=0.5;entryDx=0;entryDy=0;exitX=0.5;exitY=0;exitDx=0;exitDy=0;labelBackgroundColor=none;strokeColor=#36393d;fontColor=default;fillColor=#eeeeee;" parent="1" source="aujs98mdGq3QcJZJDIXH-3" target="-mjbvQVLUY0v4dPmMEXj-9" edge="1">
          <mxGeometry width="100" height="100" relative="1" as="geometry">
            <mxPoint x="380" y="150" as="sourcePoint" />
            <mxPoint x="600" y="250" as="targetPoint" />
          </mxGeometry>
        </mxCell>
        <mxCell id="-mjbvQVLUY0v4dPmMEXj-75" value="" style="edgeStyle=orthogonalEdgeStyle;fontSize=12;html=1;endArrow=ERoneToMany;rounded=0;entryX=0;entryY=0.5;entryDx=0;entryDy=0;exitX=0.5;exitY=1;exitDx=0;exitDy=0;labelBackgroundColor=none;strokeColor=#36393d;fontColor=default;fillColor=#eeeeee;" parent="1" source="aujs98mdGq3QcJZJDIXH-5" target="-mjbvQVLUY0v4dPmMEXj-7" edge="1">
          <mxGeometry width="100" height="100" relative="1" as="geometry">
            <mxPoint x="370" y="140" as="sourcePoint" />
            <mxPoint x="470" y="40" as="targetPoint" />
            <Array as="points">
              <mxPoint x="356" y="210" />
              <mxPoint x="520" y="210" />
              <mxPoint x="520" y="260" />
            </Array>
          </mxGeometry>
        </mxCell>
        <mxCell id="-mjbvQVLUY0v4dPmMEXj-78" value="" style="edgeStyle=orthogonalEdgeStyle;fontSize=12;html=1;endArrow=ERzeroToOne;endFill=1;rounded=0;entryX=1;entryY=0.5;entryDx=0;entryDy=0;exitX=0.5;exitY=0;exitDx=0;exitDy=0;labelBackgroundColor=none;strokeColor=#36393d;fontColor=default;fillColor=#eeeeee;" parent="1" source="-mjbvQVLUY0v4dPmMEXj-44" target="-mjbvQVLUY0v4dPmMEXj-8" edge="1">
          <mxGeometry width="100" height="100" relative="1" as="geometry">
            <mxPoint x="560" y="120" as="sourcePoint" />
            <mxPoint x="490" y="10" as="targetPoint" />
          </mxGeometry>
        </mxCell>
        <mxCell id="-mjbvQVLUY0v4dPmMEXj-80" value="" style="edgeStyle=orthogonalEdgeStyle;fontSize=12;html=1;endArrow=ERzeroToOne;endFill=1;rounded=0;entryX=1;entryY=0.5;entryDx=0;entryDy=0;exitX=0;exitY=0.5;exitDx=0;exitDy=0;labelBackgroundColor=none;strokeColor=#36393d;fontColor=default;fillColor=#eeeeee;" parent="1" source="-mjbvQVLUY0v4dPmMEXj-64" target="-mjbvQVLUY0v4dPmMEXj-10" edge="1">
          <mxGeometry width="100" height="100" relative="1" as="geometry">
            <mxPoint x="560" y="120" as="sourcePoint" />
            <mxPoint x="490" y="10" as="targetPoint" />
          </mxGeometry>
        </mxCell>
        <mxCell id="-mjbvQVLUY0v4dPmMEXj-83" value="" style="edgeStyle=orthogonalEdgeStyle;fontSize=12;html=1;endArrow=ERzeroToOne;endFill=1;rounded=0;entryX=0.5;entryY=0;entryDx=0;entryDy=0;exitX=1;exitY=0.5;exitDx=0;exitDy=0;labelBackgroundColor=none;strokeColor=#36393d;fontColor=default;fillColor=#eeeeee;" parent="1" source="-mjbvQVLUY0v4dPmMEXj-62" target="-mjbvQVLUY0v4dPmMEXj-3" edge="1">
          <mxGeometry width="100" height="100" relative="1" as="geometry">
            <mxPoint x="370" y="140" as="sourcePoint" />
            <mxPoint x="470" y="40" as="targetPoint" />
          </mxGeometry>
        </mxCell>
        <mxCell id="-mjbvQVLUY0v4dPmMEXj-84" value="" style="edgeStyle=orthogonalEdgeStyle;fontSize=12;html=1;endArrow=ERzeroToOne;endFill=1;rounded=0;entryX=0.5;entryY=0;entryDx=0;entryDy=0;exitX=0.5;exitY=1;exitDx=0;exitDy=0;labelBackgroundColor=none;strokeColor=#36393d;fontColor=default;fillColor=#eeeeee;" parent="1" source="-mjbvQVLUY0v4dPmMEXj-44" target="-mjbvQVLUY0v4dPmMEXj-9" edge="1">
          <mxGeometry width="100" height="100" relative="1" as="geometry">
            <mxPoint x="693" y="-10" as="sourcePoint" />
            <mxPoint x="540" y="-10" as="targetPoint" />
          </mxGeometry>
        </mxCell>
        <mxCell id="-mjbvQVLUY0v4dPmMEXj-90" value="" style="fontSize=12;html=1;endArrow=ERzeroToMany;endFill=1;rounded=0;entryX=0.5;entryY=0;entryDx=0;entryDy=0;exitX=0;exitY=0.5;exitDx=0;exitDy=0;edgeStyle=orthogonalEdgeStyle;labelBackgroundColor=none;strokeColor=#36393d;fontColor=default;fillColor=#eeeeee;" parent="1" source="-mjbvQVLUY0v4dPmMEXj-58" target="-mjbvQVLUY0v4dPmMEXj-1" edge="1">
          <mxGeometry width="100" height="100" relative="1" as="geometry">
            <mxPoint x="-120" y="140" as="sourcePoint" />
            <mxPoint x="-50" y="30" as="targetPoint" />
          </mxGeometry>
        </mxCell>
        <mxCell id="-mjbvQVLUY0v4dPmMEXj-96" value="" style="edgeStyle=orthogonalEdgeStyle;fontSize=12;html=1;endArrow=ERzeroToOne;endFill=1;rounded=0;entryX=1;entryY=1;entryDx=0;entryDy=0;exitX=0.5;exitY=0;exitDx=0;exitDy=0;labelBackgroundColor=none;strokeColor=#36393d;fontColor=default;fillColor=#eeeeee;" parent="1" source="aujs98mdGq3QcJZJDIXH-5" target="-mjbvQVLUY0v4dPmMEXj-10" edge="1">
          <mxGeometry width="100" height="100" relative="1" as="geometry">
            <mxPoint x="200" y="42" as="sourcePoint" />
            <mxPoint x="50" y="30" as="targetPoint" />
            <Array as="points">
              <mxPoint x="355" y="70" />
              <mxPoint x="40" y="70" />
            </Array>
          </mxGeometry>
        </mxCell>
        <mxCell id="G5XLth0pCnW-hNemeWgn-8" style="rounded=0;orthogonalLoop=1;jettySize=auto;html=1;exitX=0.5;exitY=1;exitDx=0;exitDy=0;entryX=0.5;entryY=0;entryDx=0;entryDy=0;labelBackgroundColor=none;strokeColor=#36393d;fontColor=default;fillColor=#eeeeee;" parent="1" source="G5XLth0pCnW-hNemeWgn-1" target="aujs98mdGq3QcJZJDIXH-18" edge="1">
          <mxGeometry relative="1" as="geometry">
            <mxPoint x="-350" y="90" as="targetPoint" />
          </mxGeometry>
        </mxCell>
        <mxCell id="aujs98mdGq3QcJZJDIXH-17" style="rounded=0;orthogonalLoop=1;jettySize=auto;html=1;exitX=0.5;exitY=1;exitDx=0;exitDy=0;" edge="1" parent="1" source="G5XLth0pCnW-hNemeWgn-1" target="aujs98mdGq3QcJZJDIXH-16">
          <mxGeometry relative="1" as="geometry" />
        </mxCell>
        <mxCell id="G5XLth0pCnW-hNemeWgn-1" value="MAP" style="whiteSpace=wrap;html=1;align=center;labelBackgroundColor=none;fillColor=#eeeeee;strokeColor=#36393d;" parent="1" vertex="1">
          <mxGeometry x="-430" y="13" width="100" height="40" as="geometry" />
        </mxCell>
        <mxCell id="G5XLth0pCnW-hNemeWgn-10" value="Has" style="shape=rhombus;perimeter=rhombusPerimeter;whiteSpace=wrap;html=1;align=center;labelBackgroundColor=none;fillColor=#eeeeee;strokeColor=#36393d;" parent="1" vertex="1">
          <mxGeometry x="-300" y="17" width="149" height="83" as="geometry" />
        </mxCell>
        <mxCell id="G5XLth0pCnW-hNemeWgn-11" value="" style="edgeStyle=orthogonalEdgeStyle;fontSize=12;html=1;endArrow=ERmandOne;rounded=0;entryX=1;entryY=0.5;entryDx=0;entryDy=0;exitX=0;exitY=0.5;exitDx=0;exitDy=0;labelBackgroundColor=none;strokeColor=#36393d;fontColor=default;fillColor=#eeeeee;" parent="1" source="G5XLth0pCnW-hNemeWgn-10" target="G5XLth0pCnW-hNemeWgn-1" edge="1">
          <mxGeometry width="100" height="100" relative="1" as="geometry">
            <mxPoint x="-260" y="320" as="sourcePoint" />
            <mxPoint x="-160" y="220" as="targetPoint" />
          </mxGeometry>
        </mxCell>
        <mxCell id="G5XLth0pCnW-hNemeWgn-12" value="" style="edgeStyle=orthogonalEdgeStyle;fontSize=12;html=1;endArrow=ERzeroToOne;endFill=1;rounded=0;entryX=0;entryY=0.25;entryDx=0;entryDy=0;exitX=1;exitY=0.5;exitDx=0;exitDy=0;labelBackgroundColor=none;strokeColor=#36393d;fontColor=default;fillColor=#eeeeee;" parent="1" source="G5XLth0pCnW-hNemeWgn-10" target="-mjbvQVLUY0v4dPmMEXj-10" edge="1">
          <mxGeometry width="100" height="100" relative="1" as="geometry">
            <mxPoint x="-260" y="320" as="sourcePoint" />
            <mxPoint x="-160" y="220" as="targetPoint" />
            <Array as="points">
              <mxPoint x="-140" y="59" />
              <mxPoint x="-140" y="10" />
            </Array>
          </mxGeometry>
        </mxCell>
        <mxCell id="G5XLth0pCnW-hNemeWgn-16" value="Located In" style="shape=rhombus;perimeter=rhombusPerimeter;whiteSpace=wrap;html=1;align=center;labelBackgroundColor=none;fillColor=#eeeeee;strokeColor=#36393d;" parent="1" vertex="1">
          <mxGeometry x="-194.5" y="320" width="149" height="83" as="geometry" />
        </mxCell>
        <mxCell id="G5XLth0pCnW-hNemeWgn-17" value="Located In" style="shape=rhombus;perimeter=rhombusPerimeter;whiteSpace=wrap;html=1;align=center;labelBackgroundColor=none;fillColor=#eeeeee;strokeColor=#36393d;" parent="1" vertex="1">
          <mxGeometry x="-29" y="460" width="149" height="83" as="geometry" />
        </mxCell>
        <mxCell id="G5XLth0pCnW-hNemeWgn-18" value="" style="edgeStyle=orthogonalEdgeStyle;fontSize=12;html=1;endArrow=ERmandOne;rounded=0;entryX=0;entryY=0.5;entryDx=0;entryDy=0;exitX=1;exitY=0.5;exitDx=0;exitDy=0;labelBackgroundColor=none;strokeColor=#36393d;fontColor=default;fillColor=#eeeeee;" parent="1" source="G5XLth0pCnW-hNemeWgn-16" target="-mjbvQVLUY0v4dPmMEXj-5" edge="1">
          <mxGeometry width="100" height="100" relative="1" as="geometry">
            <mxPoint x="90" y="200" as="sourcePoint" />
            <mxPoint x="-25" y="50" as="targetPoint" />
          </mxGeometry>
        </mxCell>
        <mxCell id="G5XLth0pCnW-hNemeWgn-19" value="" style="edgeStyle=orthogonalEdgeStyle;fontSize=12;html=1;endArrow=ERoneToMany;rounded=0;entryX=0.5;entryY=0;entryDx=0;entryDy=0;exitX=0;exitY=0.5;exitDx=0;exitDy=0;labelBackgroundColor=none;strokeColor=#36393d;fontColor=default;fillColor=#eeeeee;" parent="1" source="G5XLth0pCnW-hNemeWgn-16" target="-mjbvQVLUY0v4dPmMEXj-4" edge="1">
          <mxGeometry width="100" height="100" relative="1" as="geometry">
            <mxPoint x="-210" y="420" as="sourcePoint" />
            <mxPoint x="-185" y="487" as="targetPoint" />
          </mxGeometry>
        </mxCell>
        <mxCell id="G5XLth0pCnW-hNemeWgn-20" value="" style="edgeStyle=orthogonalEdgeStyle;fontSize=12;html=1;endArrow=ERmandOne;rounded=0;entryX=1;entryY=0.5;entryDx=0;entryDy=0;exitX=0;exitY=0.5;exitDx=0;exitDy=0;labelBackgroundColor=none;strokeColor=#36393d;fontColor=default;fillColor=#eeeeee;" parent="1" source="G5XLth0pCnW-hNemeWgn-17" target="-mjbvQVLUY0v4dPmMEXj-4" edge="1">
          <mxGeometry width="100" height="100" relative="1" as="geometry">
            <mxPoint x="-186" y="450" as="sourcePoint" />
            <mxPoint x="-151" y="450" as="targetPoint" />
            <Array as="points">
              <mxPoint x="-29" y="492" />
              <mxPoint x="-99" y="492" />
              <mxPoint x="-99" y="450" />
              <mxPoint x="-200" y="450" />
              <mxPoint x="-200" y="400" />
            </Array>
          </mxGeometry>
        </mxCell>
        <mxCell id="G5XLth0pCnW-hNemeWgn-21" value="" style="edgeStyle=orthogonalEdgeStyle;fontSize=12;html=1;endArrow=ERoneToMany;rounded=0;entryX=0;entryY=0.5;entryDx=0;entryDy=0;exitX=1;exitY=0.5;exitDx=0;exitDy=0;labelBackgroundColor=none;strokeColor=#36393d;fontColor=default;fillColor=#eeeeee;" parent="1" source="G5XLth0pCnW-hNemeWgn-17" target="-mjbvQVLUY0v4dPmMEXj-6" edge="1">
          <mxGeometry width="100" height="100" relative="1" as="geometry">
            <mxPoint x="190" y="550" as="sourcePoint" />
            <mxPoint x="104" y="568" as="targetPoint" />
          </mxGeometry>
        </mxCell>
        <mxCell id="G5XLth0pCnW-hNemeWgn-23" value="Has Pic" style="shape=rhombus;perimeter=rhombusPerimeter;whiteSpace=wrap;html=1;align=center;aspect=fixed;labelBackgroundColor=none;fillColor=#eeeeee;strokeColor=#36393d;" parent="1" vertex="1">
          <mxGeometry x="500" y="387" width="149" height="83" as="geometry" />
        </mxCell>
        <mxCell id="G5XLth0pCnW-hNemeWgn-24" value="" style="edgeStyle=orthogonalEdgeStyle;fontSize=12;html=1;endArrow=ERzeroToOne;endFill=1;rounded=0;strokeColor=#36393d;entryX=1;entryY=0.75;entryDx=0;entryDy=0;exitX=0;exitY=0.5;exitDx=0;exitDy=0;fillColor=#eeeeee;" parent="1" source="G5XLth0pCnW-hNemeWgn-23" target="-mjbvQVLUY0v4dPmMEXj-3" edge="1">
          <mxGeometry width="100" height="100" relative="1" as="geometry">
            <mxPoint x="80" y="280" as="sourcePoint" />
            <mxPoint x="180" y="180" as="targetPoint" />
          </mxGeometry>
        </mxCell>
        <mxCell id="G5XLth0pCnW-hNemeWgn-25" value="" style="edgeStyle=orthogonalEdgeStyle;fontSize=12;html=1;endArrow=ERzeroToOne;endFill=1;rounded=0;strokeColor=#36393d;entryX=1;entryY=0.75;entryDx=0;entryDy=0;exitX=1;exitY=0.5;exitDx=0;exitDy=0;fillColor=#eeeeee;" parent="1" target="-mjbvQVLUY0v4dPmMEXj-9" edge="1">
          <mxGeometry width="100" height="100" relative="1" as="geometry">
            <mxPoint x="640.0000000000005" y="430.00000000000045" as="sourcePoint" />
            <mxPoint x="961" y="151.5" as="targetPoint" />
            <Array as="points">
              <mxPoint x="1040" y="430" />
              <mxPoint x="1040" y="140" />
            </Array>
          </mxGeometry>
        </mxCell>
        <mxCell id="aujs98mdGq3QcJZJDIXH-1" value="" style="edgeStyle=orthogonalEdgeStyle;fontSize=12;html=1;endArrow=ERoneToMany;rounded=0;entryX=0.75;entryY=1;entryDx=0;entryDy=0;exitX=0.5;exitY=0;exitDx=0;exitDy=0;fillColor=#eeeeee;strokeColor=#36393d;" edge="1" parent="1" source="-mjbvQVLUY0v4dPmMEXj-62" target="-mjbvQVLUY0v4dPmMEXj-10">
          <mxGeometry width="100" height="100" relative="1" as="geometry">
            <mxPoint x="100" y="300" as="sourcePoint" />
            <mxPoint x="200" y="200" as="targetPoint" />
            <Array as="points">
              <mxPoint x="15" y="80" />
            </Array>
          </mxGeometry>
        </mxCell>
        <mxCell id="aujs98mdGq3QcJZJDIXH-3" value="Has" style="shape=rhombus;perimeter=rhombusPerimeter;whiteSpace=wrap;html=1;align=center;labelBackgroundColor=none;fillColor=#eeeeee;strokeColor=#36393d;" vertex="1" parent="1">
          <mxGeometry x="635.5" y="141.5" width="149" height="83" as="geometry" />
        </mxCell>
        <mxCell id="aujs98mdGq3QcJZJDIXH-5" value="Has" style="shape=rhombus;perimeter=rhombusPerimeter;whiteSpace=wrap;html=1;align=center;labelBackgroundColor=none;fillColor=#eeeeee;strokeColor=#36393d;" vertex="1" parent="1">
          <mxGeometry x="281" y="80" width="149" height="83" as="geometry" />
        </mxCell>
        <mxCell id="aujs98mdGq3QcJZJDIXH-9" value="" style="edgeStyle=orthogonalEdgeStyle;fontSize=12;html=1;endArrow=ERzeroToOne;endFill=1;rounded=0;entryX=0.5;entryY=1;entryDx=0;entryDy=0;labelBackgroundColor=none;strokeColor=#36393d;fontColor=default;fillColor=#eeeeee;exitX=0.5;exitY=0;exitDx=0;exitDy=0;" edge="1" parent="1" source="-mjbvQVLUY0v4dPmMEXj-63" target="-mjbvQVLUY0v4dPmMEXj-8">
          <mxGeometry width="100" height="100" relative="1" as="geometry">
            <mxPoint x="420" y="80" as="sourcePoint" />
            <mxPoint x="50" y="50" as="targetPoint" />
          </mxGeometry>
        </mxCell>
        <mxCell id="aujs98mdGq3QcJZJDIXH-10" value="" style="edgeStyle=orthogonalEdgeStyle;fontSize=12;html=1;endArrow=ERoneToMany;rounded=0;entryX=0.5;entryY=0;entryDx=0;entryDy=0;exitX=0.5;exitY=1;exitDx=0;exitDy=0;labelBackgroundColor=none;strokeColor=#36393d;fontColor=default;fillColor=#eeeeee;" edge="1" parent="1" source="-mjbvQVLUY0v4dPmMEXj-63" target="-mjbvQVLUY0v4dPmMEXj-7">
          <mxGeometry width="100" height="100" relative="1" as="geometry">
            <mxPoint x="366" y="173" as="sourcePoint" />
            <mxPoint x="550" y="270" as="targetPoint" />
          </mxGeometry>
        </mxCell>
        <mxCell id="aujs98mdGq3QcJZJDIXH-11" value="" style="edgeStyle=orthogonalEdgeStyle;fontSize=12;html=1;endArrow=ERzeroToOne;endFill=1;rounded=0;entryX=0.5;entryY=0;entryDx=0;entryDy=0;labelBackgroundColor=none;strokeColor=#36393d;fontColor=default;fillColor=#eeeeee;exitX=0.5;exitY=1;exitDx=0;exitDy=0;" edge="1" parent="1" source="-mjbvQVLUY0v4dPmMEXj-65" target="-mjbvQVLUY0v4dPmMEXj-6">
          <mxGeometry width="100" height="100" relative="1" as="geometry">
            <mxPoint x="-60" y="80" as="sourcePoint" />
            <mxPoint x="-50" y="20" as="targetPoint" />
            <Array as="points">
              <mxPoint x="65" y="330" />
              <mxPoint x="270" y="330" />
            </Array>
          </mxGeometry>
        </mxCell>
        <mxCell id="aujs98mdGq3QcJZJDIXH-12" value="" style="edgeStyle=orthogonalEdgeStyle;fontSize=12;html=1;endArrow=ERoneToMany;rounded=0;entryX=0.307;entryY=1.044;entryDx=0;entryDy=0;exitX=0.5;exitY=0;exitDx=0;exitDy=0;fillColor=#eeeeee;strokeColor=#36393d;entryPerimeter=0;" edge="1" parent="1" source="-mjbvQVLUY0v4dPmMEXj-65" target="-mjbvQVLUY0v4dPmMEXj-10">
          <mxGeometry width="100" height="100" relative="1" as="geometry">
            <mxPoint x="165" y="90" as="sourcePoint" />
            <mxPoint x="25" y="50" as="targetPoint" />
          </mxGeometry>
        </mxCell>
        <mxCell id="aujs98mdGq3QcJZJDIXH-13" value="" style="edgeStyle=orthogonalEdgeStyle;fontSize=12;html=1;endArrow=ERzeroToOne;endFill=1;rounded=0;entryX=1;entryY=0.5;entryDx=0;entryDy=0;labelBackgroundColor=none;strokeColor=#36393d;fontColor=default;fillColor=#eeeeee;exitX=0.5;exitY=1;exitDx=0;exitDy=0;" edge="1" parent="1" source="aujs98mdGq3QcJZJDIXH-3" target="-mjbvQVLUY0v4dPmMEXj-7">
          <mxGeometry width="100" height="100" relative="1" as="geometry">
            <mxPoint x="525" y="89" as="sourcePoint" />
            <mxPoint x="490" y="10" as="targetPoint" />
          </mxGeometry>
        </mxCell>
        <mxCell id="aujs98mdGq3QcJZJDIXH-14" value="" style="edgeStyle=orthogonalEdgeStyle;fontSize=12;html=1;endArrow=ERzeroToOne;endFill=1;rounded=0;entryX=1;entryY=0.5;entryDx=0;entryDy=0;exitX=0.5;exitY=0;exitDx=0;exitDy=0;labelBackgroundColor=none;strokeColor=#36393d;fontColor=default;fillColor=#eeeeee;" edge="1" parent="1" source="-mjbvQVLUY0v4dPmMEXj-64" target="-mjbvQVLUY0v4dPmMEXj-9">
          <mxGeometry width="100" height="100" relative="1" as="geometry">
            <mxPoint x="186" y="30" as="sourcePoint" />
            <mxPoint x="50" y="30" as="targetPoint" />
            <Array as="points">
              <mxPoint x="250" y="-130" />
              <mxPoint x="1040" y="-130" />
              <mxPoint x="1040" y="130" />
            </Array>
          </mxGeometry>
        </mxCell>
        <mxCell id="aujs98mdGq3QcJZJDIXH-16" value="mapID" style="ellipse;whiteSpace=wrap;html=1;align=center;fontStyle=4;labelBackgroundColor=none;fillColor=#eeeeee;strokeColor=#36393d;" vertex="1" parent="1">
          <mxGeometry x="-510" y="90" width="100" height="40" as="geometry" />
        </mxCell>
        <mxCell id="aujs98mdGq3QcJZJDIXH-18" value="embeded_url" style="ellipse;whiteSpace=wrap;html=1;align=center;labelBackgroundColor=none;fillColor=#eeeeee;strokeColor=#36393d;" vertex="1" parent="1">
          <mxGeometry x="-360" y="90" width="100" height="40" as="geometry" />
        </mxCell>
        <mxCell id="aujs98mdGq3QcJZJDIXH-19" value="picture_url" style="ellipse;whiteSpace=wrap;html=1;align=center;labelBackgroundColor=none;fillColor=#eeeeee;strokeColor=#36393d;" vertex="1" parent="1">
          <mxGeometry x="900" y="170" width="100" height="40" as="geometry" />
        </mxCell>
      </root>
    </mxGraphModel>
  </diagram>
</mxfile>
